<svg aria-hidden="true" style="position:absolute;width:0;height:0" xmlns="http://www.w3.org/2000/svg" overflow="hidden">
  <defs>
    <symbol id="close" viewBox="0 0 32 32">
      <path d="M26.667 7.303l-1.97-1.97-7.808 7.808-7.808-7.808-1.97 1.97 7.808 7.808-7.808 7.808 1.97 1.97 7.808-7.808 7.808 7.808 1.97-1.97-7.808-7.808 7.808-7.808z"></path>
    </symbol>

    <symbol id="check" viewBox="0 0 42 32">
      <path fill="#fff" style="fill: $color1, #fff); stroke: $color1, #fff)" stroke="#fff" stroke-linejoin="miter" stroke-linecap="butt" stroke-miterlimit="4" stroke-width="0.64" d="M6.262 15.206l-0.221-0.211-0.221 0.208-3.085 2.925 0.243 0.234 11.408 10.88 0.221-0.211 24.256-23.139-0.243-0.23-3.043-2.902-0.221 0.211-20.97 19.987-8.125-7.75z"></path>
    </symbol>

    <symbol id="email" viewBox="0 0 32 32">
      <path d="M26.667 5.333h-21.333c-1.467 0-2.653 1.2-2.653 2.667l-0.013 16c0 1.467 1.2 2.667 2.667 2.667h21.333c1.467 0 2.667-1.2 2.667-2.667v-16c0-1.467-1.2-2.667-2.667-2.667zM26.133 11l-9.427 5.893c-0.427 0.267-0.987 0.267-1.413 0l-9.427-5.893c-0.333-0.213-0.533-0.573-0.533-0.96 0-0.893 0.973-1.427 1.733-0.96l8.933 5.587 8.933-5.587c0.76-0.467 1.733 0.067 1.733 0.96 0 0.387-0.2 0.747-0.533 0.96z"></path>
    </symbol>

    <symbol id="person" viewBox="0 0 32 32">
      <path d="M16 16c2.947 0 5.333-2.387 5.333-5.333s-2.387-5.333-5.333-5.333c-2.947 0-5.333 2.387-5.333 5.333s2.387 5.333 5.333 5.333zM16 18.667c-3.56 0-10.667 1.787-10.667 5.333v1.333c0 0.733 0.6 1.333 1.333 1.333h18.667c0.733 0 1.333-0.6 1.333-1.333v-1.333c0-3.547-7.107-5.333-10.667-5.333z"></path>
    </symbol>

    <symbol id="phone" viewBox="0 0 32 32">
      <path d="M24.882 19.773l-3.268-0.373c-0.785-0.090-1.557 0.18-2.11 0.733l-2.367 2.367c-3.641-1.853-6.626-4.825-8.478-8.478l2.38-2.38c0.553-0.553 0.823-1.325 0.733-2.11l-0.373-3.242c-0.154-1.299-1.248-2.277-2.56-2.277h-2.226c-1.454 0-2.663 1.209-2.573 2.663 0.682 10.987 9.469 19.761 20.443 20.443 1.454 0.090 2.663-1.119 2.663-2.573v-2.226c0.013-1.3-0.965-2.393-2.264-2.547z"></path>
    </symbol>

    <symbol id="send" viewBox="0 0 32 32">
      <path d="M32 0l-32 18 10.227 3.788 15.773-14.788-11.998 16.186 0.010 0.004-0.012-0.004v8.814l5.735-6.691 7.265 2.691 5-28z"></path>
    </symbol>

    <symbol id="cross" viewBox="0 0 32 32">
      <path d="M23.734 10.304L22.23 8.8l-5.963 5.962L10.305 8.8l-1.504 1.504 5.962 5.962-5.962 5.963 1.504 1.504 5.962-5.963 5.963 5.963 1.504-1.504-5.963-5.963 5.963-5.962z" />
    </symbol>

    <symbol id="menu" viewBox="0 0 32 32">
      <path d="M6.4 11.734V9.6h19.2v2.134H6.4zm0 5.332h19.2v-2.133H6.4v2.133zm0 5.334h19.2v-2.134H6.4V22.4z" />
    </symbol>

    <symbol id="hero-svg-icon-1" viewBox="0 0 32 32">
      <path d="M23 20.515c0-4.615-3.78-5.141-6.817-5.563-3.31-0.46-5.183-0.86-5.183-3.71 0-2.392 2.507-3.242 4.654-3.242 1.070-0.035 2.133 0.186 3.101 0.643s1.814 1.137 2.467 1.985l1.556-1.256c-0.7-0.9-1.57-1.652-2.562-2.215s-2.085-0.923-3.216-1.061v-3.096h-2v3.022c-3.615 0.22-6 2.26-6 5.22 0 4.73 3.83 5.263 6.907 5.69 3.253 0.453 5.093 0.842 5.093 3.583 0 3.032-3.133 3.485-5 3.485-3.43 0-4.878-0.964-6.222-2.628l-1.556 1.256c0.793 1.045 1.818 1.89 2.995 2.47s2.472 0.876 3.783 0.867v3.035h2v-3.045c3.726-0.304 6-2.327 6-5.44z"></path>
    </symbol>

    <symbol id="hero-svg-icon-2" viewBox="0 0 32 32">
      <path d="M16 1.2l3.592 11.056h11.625l-9.405 6.833 3.592 11.056-9.405-6.833-9.405 6.833 3.592-11.056-9.405-6.833h11.625l3.592-11.056z"></path>
    </symbol>

    <symbol id="hero-svg-icon-3" viewBox="0 0 32 32">
      <path fill="none" stroke-linejoin="miter" stroke-linecap="butt" stroke-miterlimit="4" stroke-width="1.8824" d="M31.059 16c0 8.317-6.742 15.059-15.059 15.059s-15.059-6.742-15.059-15.059c0-8.317 6.742-15.059 15.059-15.059s15.059 6.742 15.059 15.059z"></path>
    </symbol>

    <symbol id="hero-svg-icon-4" viewBox="0 0 32 32">
      <path d="M5.485 26.883c0.481 0 0.871-0.266 0.871-0.594s-0.39-0.594-0.871-0.594c-0.481 0-0.871 0.266-0.871 0.594s0.39 0.594 0.871 0.594z"></path>
      <path d="M31 23.334l-0.327-0.192c-0.025-0.014-2.523-1.497-3.145-3.296l-0.138-0.399-0.256 0.334c-0.008 0.011-0.363 0.45-1.356 0.965-0.736-4.187-3.238-9.184-6.526-11.315 0.94 0.076 1.883-0.002 2.793-0.333 0.548-0.199 0.311-1.092-0.242-0.89-0.746 0.272-1.493 0.346-2.239 0.308 1.831-1.679 3.27-4.251 3.27-6.132 0-0.452-0-1.294-0.67-1.294-0.269 0-0.487 0.168-0.787 0.4-0.461 0.355-1.157 0.893-2.179 0.893-0.389 0-1.102-0.411-1.676-0.741-0.692-0.399-1.135-0.643-1.507-0.643-0.616 0-1.521 0.498-2.32 0.938-0.325 0.178-0.769 0.423-0.861 0.447-1.158 0-1.831-0.534-2.277-0.887-0.26-0.207-0.448-0.357-0.7-0.357-0.659 0-0.659 0.79-0.659 1.706 0 1.767 1.346 4.099 3.109 5.667-1.111 0.079-2.206 0.415-2.975 1.161-0.425 0.411 0.219 1.063 0.643 0.653 0.639-0.62 1.478-0.885 2.375-0.937 0.025 0.092 0.057 0.182 0.094 0.27-3.758 2.7-6.427 9.113-6.427 13.442 0 0.427 0.033 0.814 0.084 1.178-0.969-0.43-1.322-0.808-1.33-0.817l-0.258-0.297-0.127 0.375c-0.562 1.652-3.002 3.085-3.027 3.1l-0.357 0.207 0.363 0.197c0.127 0.069 0.254 0.129 0.381 0.195l-0.23 0.16 0.121 1.52 9.527 2.082 3.612-2.31c0.364 0.002 0.734 0.003 1.109 0.003l4.222 2.308 9.544-3v-1.604l-0.252-0.152c0.126-0.080 0.252-0.161 0.377-0.246l0.335-0.223-0.073-0.036 0.425-0.116 0.072-1.668-0.246-0.175c0.131-0.079 0.261-0.158 0.393-0.241l0.319-0.204zM10.106 2.846c0-0.222 0.003-0.395 0.008-0.53 0.077 0.060 0.166 0.126 0.261 0.193 0.291 0.698 0.843 1.703 1.778 2.336 1.136 0.77 0.985-0.115 1.591-0.923s1.016-1.231 2.031 0.846c0.442 0.905 1.18-1.625 1.881-1.994 0.186 0.101 0.371 0.195 0.552 0.275 1.257 2.044 1.839 1.407 2.956-0.292 0.307-0.18 0.559-0.373 0.759-0.527 0.001 0.046 0.002 0.098 0.002 0.155 0 1.605-1.312 3.907-2.918 5.409-0.076-0.193-0.184-0.371-0.321-0.527-0.649-0.734-1.662 0.080-2.143 0.614-0.852-0.274-2.241-1.028-3.146-0.596-0.225 0.105-0.432 0.245-0.613 0.415-1.48-1.349-2.678-3.296-2.678-4.854zM18.208 8.333c-0.224-0.048-0.447-0.101-0.668-0.16 0.279-0.24 0.535-0.324 0.643 0.033 0.011 0.039 0.018 0.083 0.026 0.127zM14.408 8.644c-0.165-0.032-0.335-0.060-0.51-0.083-0.133-0.083-0.263-0.171-0.389-0.262 0.457-0.307 1.245-0.144 1.998 0.112-0.372 0.038-0.738 0.119-1.098 0.233zM14.636 9.963c-0.28 0.070-0.585 0.042-0.849-0.063 0.107-0.056 0.215-0.105 0.323-0.155 0.175 0.085 0.35 0.155 0.526 0.218zM5.387 28.19c-1.193-0.345-2.35-0.803-3.456-1.367 0.679-0.446 2.156-1.524 2.757-2.821 0.412 0.324 1.363 0.914 3.215 1.367-0.032 0.051-0.070 0.106-0.107 0.159-1.581-0.414-2.48-0.938-2.494-0.947l-0.218-0.13-0.104 0.234c-0.138 0.306-0.46 0.352-0.639 0.352-0.050 0-0.083-0.003-0.088-0.004l-0.178-0.026-0.065 0.171c-0.133 0.349-0.679 0.805-0.879 0.951l-0.334 0.245 0.382 0.156c0.142 0.058 0.18 0.111 0.183 0.125 0.005 0.035-0.055 0.126-0.12 0.178l-0.291 0.235 0.338 0.156c0.694 0.32 1.479 0.585 2.264 0.804-0.063 0.061-0.117 0.114-0.165 0.161zM9.419 26.326c0.699 0.098 1.473 0.16 2.319 0.16h0.001c0.176 0 0.355-0.003 0.536-0.009 0.012 0.038 0.029 0.074 0.052 0.106 0.044 0.068 0.104 0.124 0.18 0.167l-1.276 1.090c-0.024-0.001-0.049-0.002-0.073-0.002-0.568 0-0.992 0.209-1.196 0.581-0.771-0.098-1.538-0.223-2.301-0.373 0.613-0.545 1.199-1.12 1.757-1.722zM3.744 26.925c0.050-0.094 0.083-0.209 0.065-0.334-0.017-0.113-0.071-0.217-0.154-0.295 0.224-0.192 0.534-0.489 0.704-0.797 0.386-0.006 0.705-0.152 0.907-0.411 0.338 0.177 1.101 0.535 2.228 0.845-0.46 0.577-1.081 1.232-1.563 1.719-0.752-0.199-1.51-0.439-2.186-0.727zM10.87 29.030l-0.103 0c-0.43 0-1.857-0.035-3.741-0.427 0.066-0.056 0.135-0.114 0.198-0.169 1.529 0.319 2.762 0.456 2.855 0.467l0.183 0.019 0.056-0.177c0.123-0.383 0.579-0.44 0.84-0.44 0.071 0 0.119 0.005 0.124 0.005l0.097 0.011 2.216-1.894-0.593-0.020c-0.198-0.007-0.281-0.051-0.302-0.082l0.126-0.328-0.347 0.015c-0.253 0.011-0.5 0.016-0.742 0.016h-0c-0.698 0-1.346-0.046-1.944-0.119l0.139-0.164c1.208 0.162 2.654 0.261 4.401 0.249-0.417 0.585-1.457 1.828-3.464 3.038zM15.882 26.857v0.913c-0.285 0-0.561-0.001-0.832-0.003l-0.082-1.027-0.677 0.055c0.456-0.539 0.65-0.898 0.668-0.931l0.183-0.347-0.387 0.007c-3.709 0.068-6.128-0.374-7.655-0.865-0.112-0.451-0.176-0.961-0.176-1.557 0-4.062 2.595-10.201 6.041-12.689 0.611 0.591 1.537 0.849 2.417 0.275 0.193-0.126 0.361-0.291 0.518-0.466 0.038 0.001 0.076 0.009 0.114 0.009 0.126 0 0.254-0.010 0.382-0.026 0.162 0.064 0.319 0.129 0.466 0.194 0.701 0.309 1.301 0.117 1.71-0.309 3.156 1.91 5.685 6.962 6.351 11.046-1.443 0.577-3.732 1.14-7.245 1.239 0.693-0.396 1.213-1.062 1.026-1.937-0.197-0.925-0.97-1.185-1.77-1.227-0.002-0.435-0.002-0.868 0.001-1.303 0.246 0.109 0.481 0.233 0.695 0.367 0.378 0.237 0.72-0.378 0.345-0.615-0.326-0.205-0.673-0.372-1.036-0.5 0.005-0.503 0.007-1.005 0.007-1.507 0.001-0.46-0.683-0.46-0.683 0 0 0.442-0.003 0.882-0.007 1.323-0.364-0.063-0.735-0.070-1.101-0.018-0.059-0.331-0.132-0.66-0.216-0.985-0.113-0.443-0.773-0.255-0.659 0.189 0.084 0.319 0.153 0.637 0.209 0.96-0.029 0.011-0.061 0.016-0.089 0.029-0.926 0.366-1.491 1.301-0.814 2.172 0.316 0.406 0.728 0.57 1.18 0.625 0.024 0.601 0.040 1.204 0.057 1.804-0.302-0.196-0.578-0.448-0.827-0.715-0.309-0.326-0.792 0.177-0.483 0.503 0.419 0.446 0.86 0.784 1.337 1 0.022 0.513 0.052 1.028 0.102 1.539 0.044 0.454 0.728 0.456 0.683 0-0.042-0.442-0.073-0.885-0.094-1.328 0.26 0.045 0.533 0.056 0.823 0.029 0.033 0.473 0.071 0.946 0.125 1.419 0.031 0.271 0.29 0.378 0.481 0.323l-0.043 0.982c-0.301 0.027-0.608 0.052-0.928 0.073l-0.381 0.025 0.203 0.328c0.021 0.033 0.251 0.397 0.766 0.928h-0.706v-0.001zM28.326 23.566c-0.629 0.296-1.423 0.566-2.233 0.803-0.498-0.515-1.135-1.201-1.611-1.81 1.060-0.321 1.653-0.652 1.92-0.83 0.211 0.186 0.492 0.283 0.823 0.283 0.11 0 0.208-0.011 0.282-0.023 0.24 0.311 0.627 0.67 0.869 0.884-0.115 0.118-0.17 0.248-0.166 0.388 0.004 0.12 0.052 0.222 0.115 0.304zM24.748 25.209c0.102 0.090 0.208 0.182 0.315 0.275-2.027 0.537-3.535 0.596-3.864 0.602-2.099-1.281-3.187-2.636-3.606-3.246 1.757-0.044 3.209-0.203 4.42-0.422 0.049 0.060 0.099 0.12 0.149 0.18-0.973 0.152-1.954 0.249-2.939 0.292l-0.403 0.017 0.222 0.34c-0 0.001-0.046 0.085-0.344 0.142l-0.484 0.095 2.382 1.929 0.111-0.030c0.003-0.001 0.212-0.057 0.467-0.057 0.366 0 0.617 0.112 0.743 0.33l0.080 0.138 0.155-0.027c0.871-0.159 1.737-0.344 2.596-0.556zM17.7 23.739l-0.569-0.031c-0.026-0.284-0.053-0.568-0.073-0.852 0.1 0.166 0.305 0.478 0.642 0.883zM16.996 21.909c-0.033-0.673-0.053-1.347-0.059-2.020 0.082 0.003 0.163 0.010 0.24 0.021 0.884 0.134 1.115 1.117 0.425 1.67-0.18 0.142-0.387 0.247-0.605 0.329zM22.215 25.285c-0.224-0.277-0.58-0.422-1.041-0.422-0.193 0-0.362 0.026-0.469 0.047l-1.497-1.213c0.124-0.071 0.208-0.162 0.254-0.273 0.011-0.028 0.020-0.056 0.026-0.086 1.187-0.065 2.187-0.183 3.033-0.328 0.41 0.458 1.012 1.089 1.811 1.822-0.982 0.234-1.8 0.393-2.117 0.453zM16.252 19.906c0.010 0.725 0.028 1.451 0.066 2.175-0.065 0.010-0.128 0.023-0.192 0.029-0.215 0.024-0.419 0.006-0.613-0.043-0.025-0.7-0.041-1.401-0.067-2.102 0.269-0.012 0.541-0.039 0.805-0.060zM15.413 19.274c-0.031-0.549-0.083-1.097-0.155-1.643 0.331-0.046 0.668-0.028 0.994 0.050-0.004 0.511-0.004 1.022-0.002 1.534-0.22 0.012-0.428 0.033-0.612 0.049-0.075 0.006-0.15 0.009-0.224 0.010zM14.726 19.187c-0.042-0.012-0.084-0.021-0.128-0.035-0.2-0.068-0.381-0.182-0.529-0.334-0.427-0.398 0.159-0.789 0.529-0.975 0.058 0.445 0.098 0.894 0.128 1.344zM20.245 28.919c-2.17-1.109-3.335-2.341-3.798-2.912 0.333-0.025 0.647-0.055 0.959-0.087l3.559 2.31 7.805-2.144c-4.025 2.426-8.001 2.796-8.525 2.833zM26.691 24.975c-0.064-0.064-0.141-0.14-0.231-0.232 0.888-0.269 1.747-0.581 2.387-0.924l0.39-0.209-0.395-0.201c-0.089-0.046-0.175-0.129-0.176-0.161 0.001-0.012 0.036-0.076 0.187-0.163l0.289-0.166-0.257-0.214c-0.008-0.007-0.809-0.672-1.091-1.101l-0.093-0.14-0.16 0.046c-0.001 0-0.138 0.040-0.316 0.040-0.275 0-0.481-0.090-0.613-0.267l-0.146-0.194-0.183 0.158c-0.009 0.008-0.576 0.472-2.096 0.912-0.050-0.072-0.098-0.145-0.144-0.22 1.842-0.559 2.784-1.235 3.192-1.605 0.655 1.417 2.214 2.558 2.892 3.006-1.088 0.658-2.239 1.205-3.436 1.634z"></path>
      <path d="M22.19 23.559c-0.499-0.135-1.061-0.043-1.258 0.205-0.196 0.248 0.051 0.561 0.55 0.698 0.499 0.135 1.061 0.042 1.258-0.206 0.196-0.248-0.050-0.56-0.549-0.697z"></path>
    </symbol>

    <symbol id="hero-svg-icon-5" viewBox="0 0 32 32">
      <path d="M32 16c0 8.837-7.163 16-16 16s-16-7.163-16-16c0-8.837 7.163-16 16-16s16 7.163 16 16z"></path>
    </symbol>

    <symbol id="hero-svg-icon-6" viewBox="0 0 32 32">
      <path fill="none" stroke-linejoin="miter" stroke-linecap="butt" stroke-miterlimit="4" stroke-width="0.8" d="M16 2.494l3.302 10.161h10.684l-8.644 6.28 0.090 0.276 3.212 9.885-8.644-6.28-8.644 6.28 3.302-10.161-8.644-6.28h10.684l0.090-0.276 3.212-9.885z"></path>
    </symbol>

    <symbol id="hero-svg-icon-7" viewBox="0 0 32 32">
      <path fill="none" stroke="currentColor" style="stroke: var(--color1, currentColor)" stroke-linejoin="round" stroke-linecap="round" stroke-miterlimit="4" stroke-width="2" d="M9.333 24v-14.597c-0-0.31 0.103-0.612 0.293-0.857s0.456-0.421 0.756-0.499c0.3-0.078 0.618-0.054 0.903 0.069s0.522 0.336 0.672 0.607l8.085 14.555c0.151 0.271 0.387 0.485 0.672 0.607s0.603 0.146 0.903 0.069c0.3-0.078 0.566-0.253 0.756-0.499s0.293-0.547 0.293-0.857v-14.597"></path>
      <path fill="none" stroke="currentColor" style="stroke: var(--color1, currentColor)" stroke-linejoin="round" stroke-linecap="round" stroke-miterlimit="4" stroke-width="2" d="M6.667 13.333h18.667"></path>
      <path fill="none" stroke="currentColor" style="stroke: var(--color1, currentColor)" stroke-linejoin="round" stroke-linecap="round" stroke-miterlimit="4" stroke-width="2" d="M6.667 18.667h18.667"></path>
    </symbol>

    <symbol id="business-insider" viewBox="0 0 102 32">
      <path d="M7.892 31.633h2.369v-12.653h-2.369v12.653zM16.575 31.443h2.121v-7.983l8.929 8.173v-12.463h-2.116v7.847l-8.935-8.037v12.463zM32.468 28.379c1.155 0.9 2.541 1.42 4.026 1.42 1.447 0 2.462-0.498 2.462-1.598 0-0.959-0.647-1.335-1.781-1.755l-1.836-0.638c-1.692-0.601-2.979-1.479-2.979-3.496 0-2.158 1.948-3.331 4.278-3.331 1.427 0 2.728 0.359 3.745 0.994v2.14c-1.057-0.781-2.213-1.319-3.699-1.319-1.279 0-2.235 0.477-2.235 1.473 0 0.9 0.6 1.259 1.657 1.621l2.045 0.718c1.982 0.697 2.891 1.777 2.891 3.555 0 2.236-1.967 3.471-4.548 3.471-1.696 0-3.139-0.474-4.026-1.073v-2.181zM46.569 31.633h2.367v-12.653h-2.367v12.653zM60.043 29.718c2.669 0 4.095-1.712 4.095-4.415 0-2.722-1.427-4.429-4.095-4.429h-2.639v8.843h2.639zM55.249 18.98h4.873c3.752 0 6.177 2.471 6.177 6.324 0 3.855-2.426 6.33-6.177 6.33h-4.873v-12.653zM78.14 18.98v1.895h-5.73v3.045h5.139v1.873h-5.14v3.925h5.731v1.915h-7.894v-12.653h7.894zM86.544 24.709h2.35c1.391 0 2.175-0.763 2.175-1.937s-0.784-1.938-2.175-1.938h-2.35v3.874zM86.544 26.498v5.134h-2.090v-12.653h4.48c2.554 0 4.207 1.316 4.207 3.793 0 2.118-0.918 3.335-2.872 3.648l4.446 5.212h-2.378l-4.304-5.133-1.488-0.001zM7.065 6.514c0.926-0.339 1.648-1.356 1.648-2.755 0-2.331-1.648-3.539-4.284-3.539h-4.429v13.012h4.84c2.636 0 4.284-1.293 4.284-3.73 0-1.378-0.865-2.586-2.059-2.988zM2.080 5.688v-3.56h2.329c1.463 0 2.245 0.53 2.245 1.759s-0.783 1.801-2.245 1.801h-2.329zM2.080 7.511h2.718c1.443 0 2.225 0.72 2.225 1.907 0 1.165-0.783 1.908-2.224 1.908h-2.718v-3.816l-0.001 0.001zM18.787 13.444c3.028 0 5.067-1.823 5.067-5.383v-7.841h-2.142v7.586c0 2.501-1.030 3.667-2.925 3.667s-2.924-1.166-2.924-3.667v-7.586h-2.142v7.819c0 3.581 2.059 5.404 5.066 5.404zM28.898 12.299c0.886 0.637 2.328 1.145 4.016 1.145 2.575 0 4.531-1.315 4.531-3.687 0-1.886-0.905-3.031-2.883-3.772l-2.038-0.763c-1.051-0.381-1.648-0.762-1.648-1.716 0-1.060 0.947-1.568 2.224-1.568 1.483 0 2.636 0.571 3.687 1.399v-2.269c-1.009-0.677-2.307-1.059-3.729-1.059-2.327 0-4.264 1.25-4.264 3.539 0 2.14 1.277 3.072 2.966 3.708l1.834 0.678c1.133 0.445 1.771 0.848 1.771 1.865 0 1.165-1.009 1.695-2.452 1.695-1.483 0-2.863-0.552-4.016-1.505v2.309zM45.1 0.22h-2.141v13.011h2.141v-13.011zM51.211 13.216h2.064v-8.465l8.687 8.666v-13.217h-2.058v8.32l-8.693-8.521v13.216zM75.347 0.223v1.948h-5.561v3.132h4.987v1.927h-4.987v4.036h5.561v1.969h-7.661v-13.012h7.661zM80.335 12.29c0.886 0.637 2.327 1.145 4.016 1.145 2.574 0 4.532-1.314 4.532-3.687 0-1.886-0.907-3.030-2.884-3.772l-2.039-0.762c-1.051-0.382-1.648-0.763-1.648-1.717 0-1.060 0.947-1.568 2.224-1.568 1.482 0 2.636 0.572 3.687 1.399v-2.268c-1.009-0.678-2.307-1.060-3.728-1.060-2.327 0-4.264 1.25-4.264 3.539 0 2.14 1.277 3.072 2.966 3.708l1.833 0.678c1.133 0.445 1.772 0.848 1.772 1.865 0 1.165-1.008 1.695-2.452 1.695-1.482 0-2.863-0.551-4.015-1.505v2.309zM93.27 12.29c0.886 0.637 2.328 1.145 4.017 1.145 2.575 0 4.531-1.314 4.531-3.687 0-1.886-0.906-3.030-2.883-3.772l-2.039-0.762c-1.050-0.382-1.648-0.763-1.648-1.717 0-1.060 0.948-1.568 2.224-1.568 1.483 0 2.637 0.572 3.688 1.399v-2.268c-1.008-0.678-2.306-1.060-3.728-1.060-2.328 0-4.264 1.25-4.264 3.539 0 2.14 1.277 3.072 2.966 3.708l1.834 0.678c1.133 0.445 1.771 0.848 1.771 1.865 0 1.165-1.009 1.695-2.451 1.695-1.483 0-2.863-0.551-4.017-1.505v2.309z"></path>
    </symbol>

    <symbol id="fidelity" viewBox="0 0 141 32">
      <path fill="none" style="none: var(--color1, #fff)" d="M15.237 29.407c7.757 0 14.042-6.264 14.042-13.993 0-7.726-6.285-13.99-14.042-13.99-7.755 0-14.042 6.264-14.042 13.99 0 7.729 6.287 13.993 14.042 13.993z"></path>
      <path fill="currentColor" style="fill: var(--color2, currentColor)" d="M13.079 17.747h5.168l1.51 0.975h-6.905l-3.099 9.546c-3.424-1.322-6.594-4.388-7.922-7.833-1.417-3.338-1.417-7.532 0.031-10.884 1.358-3.447 4.618-6.559 8.089-7.838 2.731-1.126 6.385-1.245 9.281-0.359 3.323 0.948 6.461 3.322 8.286 6.42 2.040 3.398 2.612 7.714 1.373 11.593-0.783 2.573-2.399 5.037-4.619 6.8l-3.815-6.333 5.31 2.95c0.030 0 0.045-0.033 0.030-0.063l-6.956-5.983 8.995 1.368c0.031 0 0.043-0.014 0.043-0.030l-0.058-0.045-8.483-2.963 8.814-2.122c0.030 0 0.030-0.028 0.014-0.043l-9.041 0.587 7.080-5.341c0.015-0.029-0.046-0.043-0.062-0.013l-7.952 4.018 4.39-7.717c0-0.012 0-0.045-0.028-0.029l-5.736 6.707 1.101-8.812c0-0.016-0.031-0.031-0.061-0.016l-2.638 8.557-2.31-8.813c-0.015-0.014-0.047-0.031-0.062 0l0.636 9.142-5.448-7.064c-0.018-0.016-0.032 0-0.047 0.014l4.121 7.818-7.79-4.241c-0.014 0-0.044 0.016-0.044 0.030l6.927 5.669-8.842-0.93c-0.032 0.016-0.032 0.043 0 0.058l8.573 2.499-8.528 2.496c-0.016 0.013-0.016 0.044 0 0.058l8.797-1.021-6.912 5.85c-0.014 0-0.030 0.030 0 0.047l0.092-0.031 5.536-2.888 1.3-2.059h1.477l-1.025-0.722 3.425-5.475-2.021 6.467 0.004 0.003z"></path>
      <path fill="currentColor" style="fill: var(--color2, currentColor)" d="M38.585 24.955h-6.901l5.526-19.654h14.146l-1.348 4.664h-7.219l-0.926 3.346h7.219l-1.217 4.293h-7.218l-2.062 7.351z"></path>
      <path fill="currentColor" style="fill: var(--color2, currentColor)" d="M54.553 24.955h-6.821l4.045-14.358h6.821l-4.045 14.358zM58.969 9.226h-6.821l1.11-3.926h6.821l-1.111 3.926z"></path>
      <path fill="currentColor" style="fill: var(--color2, currentColor)" d="M72.251 24.954h-6.689l0.475-1.607c-1.349 1.132-2.723 1.949-4.918 1.949-2.222 0-3.621-1.055-3.621-3.294 0-2.475 0.978-6.164 2.433-8.746 1.057-1.923 2.96-2.924 5.208-2.924 1.929 0 3.357 0.844 3.913 1.896l1.904-6.928h6.821l-5.526 19.654zM67.121 14.864c-0.609 0-1.216 0.186-1.559 1.028-0.503 1.212-0.952 2.398-0.952 3.583 0 0.554 0.397 1.028 1.057 1.028 0.529 0 0.873-0.158 1.163-0.341l1.376-4.717c-0.239-0.343-0.662-0.58-1.085-0.58z"></path>
      <path fill="currentColor" style="fill: var(--color2, currentColor)" d="M91.511 18.684h-9.412c-0.187 0.763-0.37 1.291-0.37 1.896 0 0.291 0.053 1.028 1.004 1.028s1.375-0.369 1.771-1.765h6.689c-0.846 4.084-5.711 5.479-8.698 5.479-4.046 0-7.192-0.579-7.192-4.451 0-2.134 1.084-5.665 2.512-7.534 1.719-2.239 4.706-3.081 7.457-3.081 4.229 0 6.978 0.869 6.978 4.45 0 0.87-0.369 2.793-0.74 3.979zM84.69 13.864c-0.846 0-1.427 0.579-1.797 2.028h2.802c0.080-0.29 0.186-0.737 0.186-1.001 0-0.79-0.476-1.027-1.19-1.027z"></path>
      <path fill="currentColor" style="fill: var(--color2, currentColor)" d="M98.367 24.955h-6.821l5.526-19.654h6.821l-5.526 19.654z"></path>
      <path fill="currentColor" style="fill: var(--color2, currentColor)" d="M107.38 24.955h-6.823l4.046-14.358h6.821l-4.045 14.358zM111.794 9.226h-6.82l1.11-3.926h6.821l-1.111 3.926z"></path>
      <path fill="currentColor" style="fill: var(--color2, currentColor)" d="M124.058 10.596l0.594 3.24h-5.221l-1.534 5.454c-0.132 0.421-0.239 0.947-0.239 1.29 0 0.632 0.266 0.844 1.191 0.844h1.455l-1.006 3.53h-6.081c-2.010 0-2.777-0.975-2.777-2.451 0-0.604 0.080-1.265 0.292-2.002l3.701-13.093h6.822l-0.9 3.188h3.702z"></path>
      <path fill="currentColor" style="fill: var(--color2, currentColor)" d="M31.544 27.162l1.7-0.002-1.083 3.535-1.695 0.001 1.079-3.533z"></path>
      <path fill="currentColor" style="fill: var(--color2, currentColor)" d="M37.479 27.165l2.487-0.002 0.638 2.357h0.017l0.72-2.358 1.476-0.002-1.091 3.527-2.379 0.009-0.69-2.518h-0.012l-0.754 2.514-1.477 0.001 1.065-3.528z"></path>
      <path fill="currentColor" style="fill: var(--color2, currentColor)" d="M46.041 27.167l1.872-0.001 0.327 2.221 1.713-2.223 1.733-0.002-2.857 3.528-2.078 0.001-0.71-3.524z"></path>
      <path fill="currentColor" style="fill: var(--color2, currentColor)" d="M54.946 27.168l3.868-0.003-0.219 0.714-2.224 0.002-0.215 0.725 2.085-0.001-0.209 0.681-2.084 0.001-0.215 0.7 2.246-0.002-0.226 0.715-3.889 0.003 1.081-3.535z"></path>
      <path fill="currentColor" style="fill: var(--color2, currentColor)" d="M71.558 28.028l-1.325 0.001 0.263-0.857 4.347-0.004-0.262 0.857-1.324 0.001-0.812 2.659-1.698 0.002 0.811-2.66z"></path>
      <path fill="currentColor" style="fill: var(--color2, currentColor)" d="M78.361 27.163l2.576-0.002 0.125 2.358h0.010l1.536-2.359 2.588-0.003-1.075 3.535-1.576 0.002 0.808-2.662h-0.012l-1.913 2.663-1.642 0.002-0.232-2.662h-0.017l-0.807 2.655-1.442 0.001 1.074-3.527z"></path>
      <path fill="currentColor" style="fill: var(--color2, currentColor)" d="M96.020 27.165l2.485-0.002 0.64 2.357h0.016l0.72-2.359 1.475-0.001-1.080 3.536-2.41-0.007-0.67-2.512h-0.011l-0.772 2.513-1.476 0.002 1.083-3.527z"></path>
      <path fill="currentColor" style="fill: var(--color2, currentColor)" d="M105.433 28.023l-1.326 0.001 0.263-0.858 4.348-0.003-0.261 0.857-1.325 0.002-0.811 2.668-1.7 0.002 0.813-2.669z"></path>
      <path fill="currentColor" style="fill: var(--color2, currentColor)" d="M64.025 28.236c-0.038-0.039-0.040-0.106-0.024-0.161 0.056-0.179 0.281-0.297 0.64-0.297 0.212-0.001 0.537 0.023 0.63 0.097 0.099 0.072 0.131 0.18 0.096 0.287h1.506c0.177-0.631-0.221-1.037-1.922-1.036-1.616 0.002-2.531 0.347-2.767 1.117-0.061 0.201-0.068 0.449 0.098 0.616 0.417 0.412 2.295 0.576 2.454 0.799 0.031 0.045 0.044 0.099 0.025 0.162-0.087 0.284-0.49 0.357-0.842 0.357-0.224 0-0.515-0.048-0.598-0.14-0.079-0.093-0.079-0.235-0.034-0.326l-1.576 0.003c-0.159 0.547-0.226 1.117 1.966 1.116 1.838-0.002 2.68-0.451 2.891-1.148 0.105-0.341 0.001-0.53-0.118-0.652-0.408-0.419-2.228-0.573-2.424-0.792z"></path>
      <path fill="currentColor" style="fill: var(--color2, currentColor)" d="M88.657 27.169l3.868-0.003-0.218 0.714-2.225 0.001-0.215 0.725 2.085-0.001-0.209 0.681-2.084 0.001-0.216 0.701 2.247-0.002-0.226 0.714-3.889 0.004 1.082-3.535z"></path>
      <path fill="currentColor" style="fill: var(--color2, currentColor)" d="M133.267 10.596l-3.702 7.956 0.106-7.956h-6.901l1.322 14.358c-0.169 0.841-0.448 1.314-0.977 1.548-0.579 0.257-1.889 0.212-2.35 0.186l-0.084 0.005-1.087 3.901 4.656 0.005c2.75 0 4.099-1.378 6.055-4.433l9.942-15.57h-6.98z"></path>
      <path fill="currentColor" style="fill: var(--color2, currentColor)" d="M113.129 28.227c-0.037-0.040-0.038-0.107-0.024-0.161 0.057-0.18 0.281-0.298 0.64-0.298 0.212 0 0.537 0.024 0.63 0.098 0.1 0.071 0.132 0.18 0.096 0.287h1.506c0.178-0.631-0.221-1.038-1.921-1.036-1.616 0.002-2.532 0.347-2.767 1.117-0.061 0.2-0.069 0.449 0.098 0.614 0.417 0.413 2.295 0.577 2.453 0.8 0.033 0.044 0.044 0.099 0.025 0.162-0.086 0.284-0.49 0.356-0.841 0.357-0.225 0-0.516-0.048-0.599-0.141-0.078-0.093-0.078-0.234-0.034-0.325l-1.576 0.002c-0.159 0.548-0.226 1.118 1.966 1.117 1.838-0.003 2.68-0.451 2.892-1.148 0.104-0.341 0.001-0.53-0.119-0.651-0.408-0.419-2.228-0.573-2.425-0.792z"></path>
      <path fill="currentColor" style="fill: var(--color2, currentColor)" d="M134.342 24.69c-0.683 0-1.236-0.551-1.236-1.231s0.553-1.231 1.236-1.231c0.682 0 1.236 0.551 1.236 1.231s-0.553 1.231-1.236 1.231zM134.342 21.963c-0.828 0-1.502 0.672-1.502 1.497s0.674 1.496 1.502 1.496c0.827 0 1.501-0.672 1.501-1.496s-0.675-1.497-1.501-1.497z"></path>
      <path fill="currentColor" style="fill: var(--color2, currentColor)" d="M134.084 23.356v-0.432h0.206c0.176-0.004 0.369 0.008 0.369 0.215s-0.193 0.218-0.369 0.218h-0.206zM134.943 23.15c0-0.298-0.174-0.466-0.547-0.466h-0.583v1.544h0.271v-0.632h0.206l0.388 0.632h0.298l-0.405-0.654c0.213-0.026 0.373-0.156 0.373-0.424z"></path>
      <path fill="currentColor" style="fill: var(--color2, currentColor)" d="M133.256 10.631l-3.69 7.929 0.106-7.929h-6.877l1.317 14.308c-0.169 0.838-0.446 1.309-0.974 1.543-0.577 0.255-1.882 0.21-2.342 0.184l-0.082 0.005-1.084 3.888 4.639 0.004c2.741 0 4.085-1.372 6.034-4.417l9.908-15.516-6.955 0z"></path>
    </symbol>

    <symbol id="forbes" viewBox="0 0 117 32">
      <path d="M66.092 10.617c0-3.383 0.058-6.533 0.233-9.45l-8.925 1.692v0.817l0.875 0.117c0.642 0.058 1.050 0.292 1.283 0.642 0.233 0.408 0.408 0.992 0.525 1.867 0.117 1.692 0.233 5.542 0.175 11.608 0 6.008-0.058 9.8-0.175 11.258 3.208 0.7 5.717 0.992 7.583 0.992 3.5 0 6.242-0.992 8.225-3.033 1.983-1.983 3.033-4.783 3.033-8.225 0-2.742-0.759-5.017-2.275-6.825s-3.442-2.683-5.717-2.683c-1.517 0-3.091 0.408-4.842 1.225zM66.267 28.583c-0.117-1.867-0.233-7.467-0.233-16.625 0.525-0.175 1.225-0.292 2.1-0.292 1.4 0 2.509 0.7 3.325 2.158s1.225 3.208 1.225 5.425c0 2.742-0.467 4.958-1.4 6.825-0.933 1.808-2.1 2.742-3.558 2.742-0.467-0.117-0.933-0.175-1.459-0.233zM23.917 1.75h-23.333v1.167l1.225 0.117c0.933 0.175 1.575 0.525 1.983 1.050 0.408 0.583 0.642 1.517 0.7 2.8 0.467 6.3 0.467 12.192 0 17.617-0.117 1.283-0.35 2.217-0.7 2.8-0.408 0.583-1.050 0.933-1.983 1.050l-1.225 0.175v1.167h15.050v-1.167l-1.575-0.117c-0.933-0.117-1.575-0.525-1.983-1.050-0.408-0.583-0.642-1.517-0.7-2.8-0.175-2.333-0.292-5.017-0.292-7.992l3.15 0.058c1.692 0.058 2.858 1.342 3.442 3.908h1.167v-9.508h-1.167c-0.583 2.508-1.692 3.792-3.442 3.85l-3.15 0.058c0-5.25 0.117-8.983 0.292-11.258h4.608c3.267 0 5.483 2.1 6.767 6.3l1.4-0.408-0.233-7.817zM21.175 19.717c0 3.033 0.875 5.542 2.567 7.525s4.2 2.917 7.35 2.917c3.15 0 5.717-0.992 7.583-3.033 1.867-1.983 2.742-4.492 2.742-7.525s-0.875-5.542-2.567-7.525c-1.692-1.983-4.2-2.917-7.35-2.917s-5.717 0.992-7.583 3.033c-1.867 1.983-2.742 4.492-2.742 7.525zM34.183 13.067c0.7 1.692 0.992 3.908 0.992 6.592 0 6.183-1.283 9.217-3.792 9.217-1.283 0-2.275-0.875-2.975-2.625s-0.992-3.967-0.992-6.592c0-6.125 1.283-9.158 3.792-9.158 1.283-0.058 2.275 0.817 2.975 2.567zM83.475 27.242c1.925 1.925 4.375 2.917 7.291 2.917 1.809 0 3.383-0.35 4.783-1.108 1.4-0.7 2.508-1.575 3.267-2.625l-0.583-0.7c-1.283 0.992-2.741 1.458-4.433 1.458-2.333 0-4.141-0.758-5.367-2.333-1.283-1.575-1.867-3.558-1.75-6.125h12.483c0-2.8-0.7-5.075-2.159-6.883-1.458-1.75-3.5-2.625-6.125-2.625-3.267 0-5.775 1.050-7.583 3.092s-2.683 4.55-2.683 7.525c0 3.033 0.933 5.483 2.859 7.408zM87.792 12.6c0.641-1.4 1.458-2.1 2.566-2.1 1.75 0 2.625 2.217 2.625 6.708l-6.183 0.117c0.059-1.75 0.35-3.325 0.992-4.725zM114.858 10.267c-1.575-0.7-3.558-1.108-5.949-1.108-2.45 0-4.375 0.642-5.833 1.867s-2.217 2.742-2.217 4.55c0 1.575 0.467 2.8 1.342 3.675s2.275 1.633 4.083 2.275c1.633 0.583 2.8 1.167 3.383 1.692 0.583 0.583 0.933 1.225 0.933 2.1 0 0.817-0.292 1.575-0.933 2.158-0.583 0.642-1.4 0.933-2.45 0.933-2.567 0-4.491-1.867-5.833-5.6l-0.991 0.292 0.233 5.833c2.099 0.817 4.433 1.225 7 1.225 2.683 0 4.725-0.583 6.241-1.808 1.517-1.167 2.275-2.858 2.275-4.958 0-1.4-0.35-2.567-1.109-3.442s-1.983-1.633-3.733-2.333c-1.925-0.7-3.267-1.342-3.967-1.925s-1.050-1.283-1.050-2.158c0-0.875 0.233-1.575 0.758-2.158s1.167-0.817 1.983-0.817c2.333 0 4.025 1.692 5.075 5.017l0.991-0.292-0.233-5.017zM58.742 9.742c-0.817-0.408-1.692-0.583-2.683-0.583s-1.983 0.408-3.092 1.225c-1.108 0.817-1.925 1.925-2.567 3.442l0.058-4.667-8.867 1.75v0.817l0.875 0.058c1.108 0.117 1.75 0.992 1.867 2.567 0.35 3.617 0.35 7.467 0 11.55-0.117 1.575-0.758 2.392-1.867 2.567l-0.875 0.117v1.108h12.367v-1.108l-1.575-0.117c-1.108-0.117-1.75-0.992-1.867-2.567-0.35-3.383-0.408-7-0.117-10.733 0.35-0.583 1.108-0.933 2.275-1.050s2.508 0.233 3.908 1.050l2.158-5.425z"></path>
    </symbol>

    <symbol id="marketwatch" viewBox="0 0 223 32">
      <path d="M53.973 13.381l-0.383 1.889h-0.096c-0.479-1.056-1.821-2.529-4.794-2.529-4.794 0-9.683 3.713-10.769 9.572-0.927 5.122 1.534 9.636 7.222 9.636 2.077 0 4.474-0.8 5.72-2.561h0.096l-0.351 1.921h5.305l3.323-17.927h-5.273zM52.248 22.313c-0.352 1.761-2.013 4.61-5.337 4.61-3.259 0-3.931-2.881-3.643-4.546 0.384-2.049 2.205-4.61 5.305-4.61 3.036 0.032 4.058 2.433 3.675 4.546z"></path>
      <path d="M62.252 13.381h4.985l-0.351 1.889h0.096c0.639-0.864 1.885-2.529 4.953-2.529l-0.991 5.442c-2.525 0.032-4.346 0.544-4.826 3.297l-1.821 9.828h-5.369l3.323-17.927z"></path>
      <path d="M75.545 6.37h5.369l-2.525 13.509h0.096l6.2-6.499h6.295l-8.181 7.875 4.698 10.052h-6.072l-3.451-8.643h-0.096l-1.566 8.643h-5.401l4.634-24.938z"></path>
      <path d="M99.576 12.741c-5.433 0-10.258 4.674-11.153 9.668-0.991 5.314 2.588 9.508 7.734 9.508 1.821 0 3.707-0.544 5.369-1.633 1.694-1.024 3.259-2.561 4.474-4.578h-5.465c-0.895 0.928-1.917 1.665-3.579 1.665-2.077 0-3.643-1.249-3.547-3.393h13.422c0.16-0.416 0.256-0.736 0.383-1.409 1.023-5.474-2.173-9.828-7.638-9.828zM94.143 20.36c0.415-1.056 1.885-3.073 4.666-3.073s3.451 2.017 3.451 3.073h-8.117z"></path>
      <path d="M30.838 6.37l-9.459 14.214h-0.064v-14.214h-4.57l-16.745 24.938h6.487l9.395-14.214h0.096v14.214h4.602l9.395-14.214h0.096v14.214h5.369v-24.938h-4.602z"></path>
      <path d="M120.796 13.381h-3.388l0.991-5.314h-4.697l-0.384 2.049c-0.415 2.337-1.885 3.041-3.835 3.265h-0.032l-0.799 4.066h2.653l-2.557 13.861h5.337l2.557-13.861h3.42l0.735-4.066z"></path>
      <path d="M203.627 24.522c-1.758 4.066-5.944 7.395-10.77 7.395-5.432 0-8.788-4.29-7.829-9.636 0.991-5.25 5.848-9.54 11.217-9.54 4.729 0 7.989 3.169 8.085 7.555h-5.432c-0.352-1.248-1.151-2.529-3.42-2.529-2.525-0.128-4.601 1.953-5.081 4.546-0.479 2.625 0.863 4.578 3.42 4.578 2.205 0 3.548-1.28 4.314-2.401h5.496v0.032zM159.272 0l-10.418 6.37h2.94l-9.427 14.214h-0.096v-14.214h-4.602l-9.427 14.214h-0.096v-14.214h-5.368v24.938h4.665l9.427-14.214h0.096v14.214h4.602l16.681-24.938h2.653l-1.63-6.37zM169.433 31.308h-5.304l0.351-1.921h-0.095c-1.247 1.761-3.644 2.561-5.72 2.561-5.688 0-8.149-4.482-7.223-9.636 1.055-5.858 5.976-9.572 10.77-9.572 2.941 0 4.314 1.441 4.793 2.529h0.096l0.384-1.889h5.304l-3.356 17.927zM160.422 26.955c3.324 0 4.985-2.881 5.337-4.61 0.383-2.145-0.639-4.546-3.676-4.546-3.068 0-4.921 2.561-5.304 4.61-0.288 1.665 0.383 4.546 3.642 4.546zM186.147 13.381h-3.356l0.991-5.314h-4.698l-0.383 2.049c-0.416 2.337-1.886 3.041-3.834 3.265h-0.064l-0.767 4.066h2.652l-2.557 13.861h5.337l2.557-13.861h3.42l0.703-4.066zM208.676 6.37h5.336l-1.63 8.899h0.096c1.151-1.665 2.685-2.529 5.049-2.529 1.694 0 3.642 0.64 4.537 2.017 1.151 1.761 1.023 3.329 0.416 6.531l-1.822 10.020h-5.336l1.789-9.764c0.16-0.864 0.672-3.777-2.173-3.777-3.004 0-3.516 2.689-3.674 3.585l-1.822 9.924h-5.336l4.569-24.906z"></path>
    </symbol>

    <symbol id="wired" viewBox="0 0 161 32">
      <path fill="none" style="fill: var(--color1, none)" d="M0 0h160.914v32h-160.914v-32z"></path>
      <path fill="currentColor" style="fill: var(--color2, currentColor)" d="M55.946 23.364v3.682h-15.342v-3.682h5.511v-14.729h-5.511v-3.682h15.342v3.682h-5.511v14.729h5.511z"></path>
      <path fill="currentColor" style="fill: var(--color2, currentColor)" d="M29.89 4.953h-4.232l-3.042 17.49h-0.044l-3.527-16.219c-0.22-1.096-0.573-1.359-1.631-1.359h-2.337c-1.014 0-1.411 0.263-1.631 1.359l-3.527 16.219h-0.088l-2.998-17.49h-4.541l4.365 20.997c0.176 0.921 0.529 1.14 1.543 1.14h2.998c1.014 0 1.367-0.219 1.543-1.184l3.306-15.211h0.088l3.306 15.211c0.22 0.964 0.529 1.184 1.543 1.184h2.954c1.058 0 1.367-0.219 1.543-1.14l4.409-20.997zM32.183 32h-32.183v-32h32.183v32z"></path>
      <path fill="currentColor" style="fill: var(--color2, currentColor)" d="M85.263 21.392c0.016 1.891 0.149 3.78 0.397 5.655h4.409c-0.132-1.184-0.264-3.156-0.353-5.962s-1.146-3.77-3.439-4.208v-0.088c2.557-0.395 3.659-1.622 3.659-5.523 0-3.244-0.529-4.427-1.411-5.304s-1.808-0.964-3.527-0.964h-13.534v22.049h4.585v-8.592h6.348c1.323 0 1.852 0.088 2.204 0.438s0.617 0.745 0.661 2.499zM76.049 14.86v-6.137h7.274c1.014 0 1.323 0.088 1.499 0.263s0.617 0.789 0.617 2.718-0.309 2.542-0.661 2.849c-0.353 0.307-0.485 0.307-1.499 0.307h-7.23zM96.549 32h-32.183v-32h32.183v32z"></path>
      <path fill="currentColor" style="fill: var(--color2, currentColor)" d="M135.829 4.953v22.093h10.934c3.13 0 4.849-0.438 6.216-1.622s2.336-3.945 2.336-9.381-0.75-8.022-2.336-9.381c-1.587-1.359-3.043-1.622-6.216-1.622h-10.934v-0.088zM150.775 16c0 4.734-0.397 5.962-1.235 6.619s-1.455 0.658-3.086 0.658h-6.040v-14.553h6.040c1.675 0 2.381 0.088 3.086 0.658s1.235 1.885 1.235 6.663v-0.044zM160.914 32h-32.183v-32h32.183v32z"></path>
      <path fill="currentColor" style="fill: var(--color2, currentColor)" d="M102.456 8.636v-3.682h18.913v7.101h-3.968v-3.419h-7.671v5.26h6.084v3.551h-6.084v5.918h7.847v-3.858h4.012v7.54h-19.133v-3.682h2.997v-14.729h-2.997z"></path>
    </symbol>

    <symbol id="dollar" viewBox="0 0 32 32">
      <path d="M23 20.515c0-4.615-3.78-5.141-6.817-5.563-3.31-0.46-5.183-0.86-5.183-3.71 0-2.392 2.507-3.242 4.654-3.242 1.070-0.035 2.133 0.186 3.101 0.643s1.814 1.137 2.467 1.985l1.556-1.256c-0.7-0.9-1.57-1.652-2.562-2.215s-2.084-0.923-3.216-1.061v-3.096h-2v3.022c-3.615 0.22-6 2.26-6 5.22 0 4.73 3.83 5.263 6.907 5.69 3.253 0.453 5.093 0.842 5.093 3.583 0 3.032-3.133 3.485-5 3.485-3.43 0-4.878-0.964-6.222-2.628l-1.556 1.256c0.793 1.045 1.818 1.89 2.995 2.469s2.472 0.876 3.783 0.868v3.035h2v-3.045c3.726-0.304 6-2.327 6-5.44z"></path>
    </symbol>

    <symbol id="mobile" viewBox="0 0 32 32">
      <path d="M28 25l-1.414-1.414-2.586 2.586v-8.172h-2v8.172l-2.586-2.586-1.414 1.414 5 5 5-5z"></path>
      <path d="M10 28v-18h12v5h2v-9c-0-0.53-0.211-1.039-0.586-1.414s-0.883-0.586-1.414-0.586h-12c-0.53 0.001-1.039 0.211-1.414 0.586s-0.586 0.883-0.586 1.414v22c0 0.53 0.211 1.039 0.586 1.414s0.883 0.586 1.414 0.586h6v-2h-6zM10 6h12v2h-12v-2z"></path>
    </symbol>

    <symbol id="inprivate" viewBox="0 0 32 32">
      <path d="M24 18.286c1.493 0 2.763 0.954 3.234 2.286h-11.234v-0.571h-8c-0.426 0-0.837 0.159-1.152 0.445s-0.513 0.68-0.554 1.104l-0.008 0.166v0.817c0 3.056 3.873 5.469 9.714 5.469v-0.571h8.538c-2.046 1.421-5.040 2.286-8.538 2.286-6.617 0-11.429-2.934-11.429-7.183v-0.817c0-0.909 0.361-1.781 1.004-2.424s1.515-1.004 2.424-1.004h16zM27.429 21.714v0.817c0 0.305-0.026 0.605-0.080 0.897h-11.349v-1.714h11.429zM27.005 24.571h-11.005v1.714h9.867c0.488-0.527 0.872-1.102 1.137-1.714zM22.805 8.286c0.071 0.569 0.071 1.145 0 1.714h-6.805v-1.714h6.805zM22.561 7.143c-0.185-0.606-0.453-1.183-0.797-1.714h-5.765v1.714h6.561zM16 2.286c1.889 0 3.6 0.765 4.84 2h-4.84v-0.286c-1.364 0-2.672 0.542-3.637 1.506s-1.506 2.273-1.506 3.637c0 1.364 0.542 2.672 1.506 3.637s2.273 1.506 3.637 1.506v-0.286h4.84c-0.798 0.796-1.781 1.382-2.86 1.708s-2.222 0.38-3.327 0.159c-1.105-0.221-2.139-0.712-3.009-1.428s-1.551-1.636-1.982-2.677c-0.43-1.042-0.597-2.174-0.486-3.295s0.497-2.199 1.124-3.136c0.627-0.937 1.475-1.705 2.469-2.236s2.104-0.809 3.231-0.809zM21.765 12.857h-5.765v-1.714h6.56c-0.185 0.613-0.455 1.189-0.795 1.714z"></path>
    </symbol>

    <symbol id="account" viewBox="0 0 32 32">
      <path d="M8.666 13.333h-2.667v9.333h2.667v-9.333zM16.666 13.333h-2.667v9.333h2.667v-9.333zM28 25.333h-25.333v2.667h25.333v-2.667zM24.666 13.333h-2.667v9.333h2.667v-9.333zM15.333 4.347l6.947 3.653h-13.893l6.947-3.653zM15.333 1.333l-12.667 6.667v2.667h25.333v-2.667l-12.667-6.667z"></path>
    </symbol>

    <symbol id="sitelogo" viewBox="0 0 183 32">
      <path stroke-linejoin="miter" stroke-linecap="round" stroke-miterlimit="4" stroke-width="5.12" d="M2.56 5.76v20.48"></path>
      <path stroke-linejoin="miter" stroke-linecap="round" stroke-miterlimit="4" stroke-width="5.12" d="M15.36 8.32v15.36"></path>
      <path stroke-linejoin="miter" stroke-linecap="round" stroke-miterlimit="4" stroke-width="5.12" d="M28.16 10.88v10.24"></path>
      <path d="M42.004 24.32v-23.232h12.137v2.52h-10.194l0.915-0.746v9.828l-0.915-1.267h9.56v2.506h-9.56l0.915-1.267v11.658h-2.858zM64.035 24.771c-1.342 0-2.558-0.329-3.647-0.986-1.079-0.666-1.938-1.577-2.577-2.732-0.629-1.155-0.943-2.473-0.943-3.956 0-1.464 0.31-2.769 0.929-3.914 0.62-1.155 1.469-2.065 2.548-2.732s2.309-1 3.689-1c1.22 0 2.333 0.272 3.337 0.817 1.014 0.544 1.798 1.3 2.351 2.267v-2.633h2.732v14.418h-2.732v-2.703c-0.629 0.995-1.436 1.769-2.422 2.323s-2.074 0.831-3.267 0.831zM64.767 22.419c0.986 0 1.854-0.225 2.605-0.676 0.76-0.46 1.356-1.089 1.788-1.887s0.648-1.713 0.648-2.746-0.216-1.948-0.648-2.746c-0.432-0.798-1.028-1.422-1.788-1.873-0.751-0.46-1.619-0.69-2.605-0.69-0.976 0-1.844 0.23-2.605 0.69-0.76 0.451-1.361 1.075-1.802 1.873-0.432 0.798-0.648 1.713-0.648 2.746 0 1.023 0.216 1.938 0.648 2.746 0.441 0.798 1.042 1.427 1.802 1.887 0.76 0.451 1.629 0.676 2.605 0.676zM78.219 24.32v-14.418h2.732v2.112c0.479-0.835 1.089-1.469 1.83-1.901 0.742-0.441 1.582-0.662 2.52-0.662 0.451 0 0.906 0.056 1.366 0.169 0.469 0.103 0.873 0.244 1.211 0.422l-1.126 2.309c-0.291-0.16-0.629-0.286-1.014-0.38s-0.746-0.141-1.084-0.141c-0.629 0-1.23 0.164-1.802 0.493-0.563 0.319-1.023 0.737-1.38 1.253-0.347 0.516-0.521 1.070-0.521 1.661v9.082h-2.732zM91.254 24.32v-14.418h2.732v1.859c0.61-0.77 1.3-1.347 2.070-1.732s1.624-0.577 2.563-0.577c1.164 0 2.187 0.268 3.069 0.803 0.882 0.526 1.497 1.244 1.844 2.154 0.601-0.92 1.324-1.643 2.168-2.168s1.835-0.788 2.971-0.788c1.033 0 1.948 0.211 2.746 0.634s1.427 1.033 1.887 1.83c0.46 0.798 0.69 1.765 0.69 2.9v9.504h-2.732v-8.744c0-1.202-0.314-2.154-0.943-2.858s-1.464-1.056-2.506-1.056c-0.723 0-1.375 0.16-1.957 0.479-0.573 0.31-1.028 0.718-1.366 1.225-0.329 0.498-0.493 1.023-0.493 1.577v9.377h-2.732v-8.927c0-1.136-0.31-2.042-0.929-2.717s-1.445-1.014-2.478-1.014c-0.723 0-1.38 0.155-1.971 0.465-0.582 0.3-1.047 0.695-1.394 1.183-0.338 0.488-0.507 1-0.507 1.535v9.476h-2.732zM127.507 24.32l-9.743-23.232h3.238l7.631 18.924 7.631-18.924h3.224l-9.743 23.232h-2.239zM148.325 24.771c-1.512 0-2.868-0.333-4.069-1-1.202-0.666-2.15-1.572-2.844-2.717-0.695-1.155-1.042-2.455-1.042-3.9 0-1.070 0.197-2.070 0.591-2.999s0.943-1.746 1.647-2.45c0.704-0.713 1.521-1.267 2.45-1.661s1.924-0.591 2.985-0.591c1.501 0 2.816 0.31 3.942 0.929 1.135 0.62 2.017 1.483 2.647 2.591 0.637 1.108 0.957 2.394 0.957 3.858 0 0.122-0.005 0.221-0.014 0.296-0.010 0.075-0.028 0.174-0.056 0.296h-12.39c0 1.004 0.225 1.891 0.676 2.661 0.46 0.77 1.088 1.375 1.887 1.816 0.806 0.432 1.732 0.648 2.774 0.648 0.986 0 1.868-0.202 2.647-0.605 0.778-0.404 1.454-1.004 2.028-1.802l1.999 1.042c-0.686 1.136-1.629 2.018-2.83 2.647-1.193 0.629-2.52 0.943-3.985 0.943zM143.27 15.407h9.574c-0.132-0.742-0.422-1.389-0.873-1.943-0.442-0.563-1-1-1.676-1.309-0.667-0.319-1.404-0.479-2.211-0.479-0.845 0-1.61 0.155-2.295 0.465-0.676 0.3-1.235 0.732-1.676 1.295-0.433 0.554-0.714 1.211-0.845 1.971zM163.876 24.771c-1.202 0-2.267-0.258-3.196-0.774-0.92-0.526-1.652-1.272-2.196-2.239l1.309-1.69c0.497 0.835 1.098 1.483 1.802 1.943s1.459 0.69 2.267 0.69c0.525 0 1-0.103 1.422-0.31 0.431-0.206 0.774-0.502 1.028-0.887 0.253-0.394 0.38-0.859 0.38-1.394 0-0.516-0.132-0.92-0.394-1.211-0.253-0.3-0.634-0.563-1.14-0.788-0.498-0.225-1.123-0.483-1.873-0.774-0.602-0.244-1.183-0.521-1.746-0.831s-1.028-0.699-1.394-1.169c-0.357-0.479-0.535-1.084-0.535-1.816 0-0.788 0.211-1.488 0.634-2.098 0.431-0.61 1.023-1.089 1.774-1.436 0.75-0.347 1.605-0.521 2.563-0.521 0.778 0 1.535 0.155 2.267 0.465s1.426 0.756 2.084 1.338l-1.098 1.661c-0.977-1.033-2.056-1.549-3.238-1.549-0.714 0-1.292 0.183-1.732 0.549-0.442 0.357-0.662 0.821-0.662 1.394 0 0.441 0.159 0.812 0.479 1.112 0.319 0.291 0.727 0.544 1.225 0.76 0.497 0.216 1.014 0.427 1.549 0.634 0.806 0.3 1.51 0.61 2.112 0.929 0.609 0.319 1.084 0.732 1.422 1.239 0.338 0.498 0.507 1.169 0.507 2.013 0 0.986-0.236 1.835-0.704 2.548-0.461 0.713-1.112 1.262-1.957 1.647-0.845 0.375-1.83 0.563-2.957 0.563zM177.891 24.771c-1.183 0-2.103-0.39-2.76-1.169-0.658-0.788-0.986-1.891-0.986-3.309v-8.321h-1.605v-2.070h1.605v-5.393h2.732v5.393h3.464v2.070h-3.464v8.152c0 0.713 0.141 1.262 0.422 1.647s0.685 0.577 1.211 0.577c0.525 0 0.995-0.155 1.408-0.465l0.69 2.182c-0.366 0.216-0.794 0.385-1.281 0.507-0.479 0.131-0.957 0.197-1.436 0.197z"></path>
    </symbol>

    <symbol id="facebook" viewBox="0 0 18 32">
      <path stroke-linejoin="round" stroke-linecap="round" stroke-miterlimit="4" stroke-width="0.9412" d="M17.369 0.941h-4.48c-1.98 0-3.88 0.793-5.28 2.205s-2.187 3.327-2.187 5.324v4.518h-4.48v6.024h4.48v12.047h5.974v-12.047h4.48l1.493-6.024h-5.974v-4.518c0-0.399 0.157-0.782 0.437-1.065s0.66-0.441 1.056-0.441h4.48v-6.024z"></path>
    </symbol>

    <symbol id="instagram" viewBox="0 0 32 32">
      <path d="M8.535 1.5c-3.885 0-7.035 3.15-7.035 7.035v15.070c0 3.885 3.15 7.035 7.035 7.035h15.070c3.885 0 7.035-3.15 7.035-7.035v-15.070c0-3.885-3.15-7.035-7.035-7.035h-15.070zM0.5 8.535c0-4.438 3.597-8.035 8.035-8.035h15.070c4.438 0 8.035 3.597 8.035 8.035v15.070c0 4.438-3.597 8.035-8.035 8.035h-15.070c-4.438 0-8.035-3.597-8.035-8.035v-15.070zM16.946 10.536c-1.15-0.171-2.325 0.026-3.357 0.561s-1.869 1.383-2.392 2.421c-0.523 1.039-0.705 2.216-0.52 3.364s0.727 2.208 1.549 3.031 1.883 1.364 3.031 1.549c1.148 0.185 2.325 0.003 3.364-0.52s1.886-1.36 2.421-2.392c0.535-1.032 0.732-2.207 0.561-3.357-0.174-1.173-0.721-2.259-1.559-3.098s-1.925-1.385-3.098-1.559zM13.129 10.21c1.219-0.632 2.606-0.864 3.964-0.663 1.385 0.205 2.668 0.851 3.658 1.841s1.636 2.273 1.841 3.658c0.201 1.358-0.031 2.745-0.663 3.964s-1.633 2.207-2.859 2.824c-1.227 0.617-2.616 0.832-3.972 0.614s-2.608-0.858-3.579-1.829-1.611-2.223-1.829-3.579c-0.218-1.356-0.003-2.745 0.614-3.972s1.606-2.227 2.825-2.859zM24.358 7.281c-0.276 0-0.5 0.224-0.5 0.5s0.224 0.5 0.5 0.5h0.017c0.276 0 0.5-0.224 0.5-0.5s-0.224-0.5-0.5-0.5h-0.017z"></path>
    </symbol>

    <symbol id="twitter" viewBox="0 0 39 32">
      <path stroke-linejoin="round" stroke-linecap="round" stroke-miterlimit="4" stroke-width="1.1429" d="M37.46 1.159c-1.581 1.119-3.331 1.974-5.184 2.534-0.994-1.147-2.315-1.96-3.785-2.328s-3.017-0.276-4.432 0.266c-1.415 0.542-2.631 1.507-3.482 2.764s-1.296 2.747-1.276 4.266v1.656c-2.901 0.075-5.776-0.57-8.368-1.879s-4.821-3.24-6.489-5.623c0 0-6.603 14.904 8.254 21.528-3.4 2.315-7.45 3.476-11.556 3.312 14.857 8.28 33.016 0 33.016-19.044-0.002-0.461-0.046-0.921-0.132-1.374 1.685-1.667 2.874-3.771 3.434-6.077v0z"></path>
    </symbol>

  </defs>
</svg>