<svg aria-hidden="true" style="position:absolute;width:0;height:0" xmlns="http://www.w3.org/2000/svg" overflow="hidden">
  <defs>
    <symbol id="close" viewBox="0 0 32 32">
      <path d="M26.667 7.303l-1.97-1.97-7.808 7.808-7.808-7.808-1.97 1.97 7.808 7.808-7.808 7.808 1.97 1.97 7.808-7.808 7.808 7.808 1.97-1.97-7.808-7.808 7.808-7.808z"></path>
    </symbol>

    <symbol id="check" viewBox="0 0 42 32">
      <path fill="#fff" style="fill: $color1, #fff); stroke: $color1, #fff)" stroke="#fff" stroke-linejoin="miter" stroke-linecap="butt" stroke-miterlimit="4" stroke-width="0.64" d="M6.262 15.206l-0.221-0.211-0.221 0.208-3.085 2.925 0.243 0.234 11.408 10.88 0.221-0.211 24.256-23.139-0.243-0.23-3.043-2.902-0.221 0.211-20.97 19.987-8.125-7.75z"></path>
    </symbol>

    <symbol id="email" viewBox="0 0 32 32">
      <path d="M26.667 5.333h-21.333c-1.467 0-2.653 1.2-2.653 2.667l-0.013 16c0 1.467 1.2 2.667 2.667 2.667h21.333c1.467 0 2.667-1.2 2.667-2.667v-16c0-1.467-1.2-2.667-2.667-2.667zM26.133 11l-9.427 5.893c-0.427 0.267-0.987 0.267-1.413 0l-9.427-5.893c-0.333-0.213-0.533-0.573-0.533-0.96 0-0.893 0.973-1.427 1.733-0.96l8.933 5.587 8.933-5.587c0.76-0.467 1.733 0.067 1.733 0.96 0 0.387-0.2 0.747-0.533 0.96z"></path>
    </symbol>

    <symbol id="person" viewBox="0 0 32 32">
      <path d="M16 16c2.947 0 5.333-2.387 5.333-5.333s-2.387-5.333-5.333-5.333c-2.947 0-5.333 2.387-5.333 5.333s2.387 5.333 5.333 5.333zM16 18.667c-3.56 0-10.667 1.787-10.667 5.333v1.333c0 0.733 0.6 1.333 1.333 1.333h18.667c0.733 0 1.333-0.6 1.333-1.333v-1.333c0-3.547-7.107-5.333-10.667-5.333z"></path>
    </symbol>

    <symbol id="phone" viewBox="0 0 32 32">
      <path d="M24.882 19.773l-3.268-0.373c-0.785-0.090-1.557 0.18-2.11 0.733l-2.367 2.367c-3.641-1.853-6.626-4.825-8.478-8.478l2.38-2.38c0.553-0.553 0.823-1.325 0.733-2.11l-0.373-3.242c-0.154-1.299-1.248-2.277-2.56-2.277h-2.226c-1.454 0-2.663 1.209-2.573 2.663 0.682 10.987 9.469 19.761 20.443 20.443 1.454 0.090 2.663-1.119 2.663-2.573v-2.226c0.013-1.3-0.965-2.393-2.264-2.547z"></path>
    </symbol>

    <symbol id="send" viewBox="0 0 32 32">
      <path d="M32 0l-32 18 10.227 3.788 15.773-14.788-11.998 16.186 0.010 0.004-0.012-0.004v8.814l5.735-6.691 7.265 2.691 5-28z"></path>
    </symbol>

    <symbol id="cross" viewBox="0 0 32 32">
      <path d="M23.734 10.304L22.23 8.8l-5.963 5.962L10.305 8.8l-1.504 1.504 5.962 5.962-5.962 5.963 1.504 1.504 5.962-5.963 5.963 5.963 1.504-1.504-5.963-5.963 5.963-5.962z" />
    </symbol>

    <symbol id="menu" viewBox="0 0 32 32">
      <path d="M6.4 11.734V9.6h19.2v2.134H6.4zm0 5.332h19.2v-2.133H6.4v2.133zm0 5.334h19.2v-2.134H6.4V22.4z" />
    </symbol>

    <symbol id="hero-svg-icon-1" viewBox="0 0 32 32">
      <path d="M23 20.515c0-4.615-3.78-5.141-6.817-5.563-3.31-0.46-5.183-0.86-5.183-3.71 0-2.392 2.507-3.242 4.654-3.242 1.070-0.035 2.133 0.186 3.101 0.643s1.814 1.137 2.467 1.985l1.556-1.256c-0.7-0.9-1.57-1.652-2.562-2.215s-2.085-0.923-3.216-1.061v-3.096h-2v3.022c-3.615 0.22-6 2.26-6 5.22 0 4.73 3.83 5.263 6.907 5.69 3.253 0.453 5.093 0.842 5.093 3.583 0 3.032-3.133 3.485-5 3.485-3.43 0-4.878-0.964-6.222-2.628l-1.556 1.256c0.793 1.045 1.818 1.89 2.995 2.47s2.472 0.876 3.783 0.867v3.035h2v-3.045c3.726-0.304 6-2.327 6-5.44z"></path>
    </symbol>

    <symbol id="hero-svg-icon-2" viewBox="0 0 32 32">
      <path d="M16 1.2l3.592 11.056h11.625l-9.405 6.833 3.592 11.056-9.405-6.833-9.405 6.833 3.592-11.056-9.405-6.833h11.625l3.592-11.056z"></path>
    </symbol>

    <symbol id="hero-svg-icon-3" viewBox="0 0 32 32">
      <path fill="none" stroke-linejoin="miter" stroke-linecap="butt" stroke-miterlimit="4" stroke-width="1.8824" d="M31.059 16c0 8.317-6.742 15.059-15.059 15.059s-15.059-6.742-15.059-15.059c0-8.317 6.742-15.059 15.059-15.059s15.059 6.742 15.059 15.059z"></path>
    </symbol>

    <symbol id="hero-svg-icon-4" viewBox="0 0 32 32">
      <path d="M5.485 26.883c0.481 0 0.871-0.266 0.871-0.594s-0.39-0.594-0.871-0.594c-0.481 0-0.871 0.266-0.871 0.594s0.39 0.594 0.871 0.594z"></path>
      <path d="M31 23.334l-0.327-0.192c-0.025-0.014-2.523-1.497-3.145-3.296l-0.138-0.399-0.256 0.334c-0.008 0.011-0.363 0.45-1.356 0.965-0.736-4.187-3.238-9.184-6.526-11.315 0.94 0.076 1.883-0.002 2.793-0.333 0.548-0.199 0.311-1.092-0.242-0.89-0.746 0.272-1.493 0.346-2.239 0.308 1.831-1.679 3.27-4.251 3.27-6.132 0-0.452-0-1.294-0.67-1.294-0.269 0-0.487 0.168-0.787 0.4-0.461 0.355-1.157 0.893-2.179 0.893-0.389 0-1.102-0.411-1.676-0.741-0.692-0.399-1.135-0.643-1.507-0.643-0.616 0-1.521 0.498-2.32 0.938-0.325 0.178-0.769 0.423-0.861 0.447-1.158 0-1.831-0.534-2.277-0.887-0.26-0.207-0.448-0.357-0.7-0.357-0.659 0-0.659 0.79-0.659 1.706 0 1.767 1.346 4.099 3.109 5.667-1.111 0.079-2.206 0.415-2.975 1.161-0.425 0.411 0.219 1.063 0.643 0.653 0.639-0.62 1.478-0.885 2.375-0.937 0.025 0.092 0.057 0.182 0.094 0.27-3.758 2.7-6.427 9.113-6.427 13.442 0 0.427 0.033 0.814 0.084 1.178-0.969-0.43-1.322-0.808-1.33-0.817l-0.258-0.297-0.127 0.375c-0.562 1.652-3.002 3.085-3.027 3.1l-0.357 0.207 0.363 0.197c0.127 0.069 0.254 0.129 0.381 0.195l-0.23 0.16 0.121 1.52 9.527 2.082 3.612-2.31c0.364 0.002 0.734 0.003 1.109 0.003l4.222 2.308 9.544-3v-1.604l-0.252-0.152c0.126-0.080 0.252-0.161 0.377-0.246l0.335-0.223-0.073-0.036 0.425-0.116 0.072-1.668-0.246-0.175c0.131-0.079 0.261-0.158 0.393-0.241l0.319-0.204zM10.106 2.846c0-0.222 0.003-0.395 0.008-0.53 0.077 0.060 0.166 0.126 0.261 0.193 0.291 0.698 0.843 1.703 1.778 2.336 1.136 0.77 0.985-0.115 1.591-0.923s1.016-1.231 2.031 0.846c0.442 0.905 1.18-1.625 1.881-1.994 0.186 0.101 0.371 0.195 0.552 0.275 1.257 2.044 1.839 1.407 2.956-0.292 0.307-0.18 0.559-0.373 0.759-0.527 0.001 0.046 0.002 0.098 0.002 0.155 0 1.605-1.312 3.907-2.918 5.409-0.076-0.193-0.184-0.371-0.321-0.527-0.649-0.734-1.662 0.080-2.143 0.614-0.852-0.274-2.241-1.028-3.146-0.596-0.225 0.105-0.432 0.245-0.613 0.415-1.48-1.349-2.678-3.296-2.678-4.854zM18.208 8.333c-0.224-0.048-0.447-0.101-0.668-0.16 0.279-0.24 0.535-0.324 0.643 0.033 0.011 0.039 0.018 0.083 0.026 0.127zM14.408 8.644c-0.165-0.032-0.335-0.060-0.51-0.083-0.133-0.083-0.263-0.171-0.389-0.262 0.457-0.307 1.245-0.144 1.998 0.112-0.372 0.038-0.738 0.119-1.098 0.233zM14.636 9.963c-0.28 0.070-0.585 0.042-0.849-0.063 0.107-0.056 0.215-0.105 0.323-0.155 0.175 0.085 0.35 0.155 0.526 0.218zM5.387 28.19c-1.193-0.345-2.35-0.803-3.456-1.367 0.679-0.446 2.156-1.524 2.757-2.821 0.412 0.324 1.363 0.914 3.215 1.367-0.032 0.051-0.070 0.106-0.107 0.159-1.581-0.414-2.48-0.938-2.494-0.947l-0.218-0.13-0.104 0.234c-0.138 0.306-0.46 0.352-0.639 0.352-0.050 0-0.083-0.003-0.088-0.004l-0.178-0.026-0.065 0.171c-0.133 0.349-0.679 0.805-0.879 0.951l-0.334 0.245 0.382 0.156c0.142 0.058 0.18 0.111 0.183 0.125 0.005 0.035-0.055 0.126-0.12 0.178l-0.291 0.235 0.338 0.156c0.694 0.32 1.479 0.585 2.264 0.804-0.063 0.061-0.117 0.114-0.165 0.161zM9.419 26.326c0.699 0.098 1.473 0.16 2.319 0.16h0.001c0.176 0 0.355-0.003 0.536-0.009 0.012 0.038 0.029 0.074 0.052 0.106 0.044 0.068 0.104 0.124 0.18 0.167l-1.276 1.090c-0.024-0.001-0.049-0.002-0.073-0.002-0.568 0-0.992 0.209-1.196 0.581-0.771-0.098-1.538-0.223-2.301-0.373 0.613-0.545 1.199-1.12 1.757-1.722zM3.744 26.925c0.050-0.094 0.083-0.209 0.065-0.334-0.017-0.113-0.071-0.217-0.154-0.295 0.224-0.192 0.534-0.489 0.704-0.797 0.386-0.006 0.705-0.152 0.907-0.411 0.338 0.177 1.101 0.535 2.228 0.845-0.46 0.577-1.081 1.232-1.563 1.719-0.752-0.199-1.51-0.439-2.186-0.727zM10.87 29.030l-0.103 0c-0.43 0-1.857-0.035-3.741-0.427 0.066-0.056 0.135-0.114 0.198-0.169 1.529 0.319 2.762 0.456 2.855 0.467l0.183 0.019 0.056-0.177c0.123-0.383 0.579-0.44 0.84-0.44 0.071 0 0.119 0.005 0.124 0.005l0.097 0.011 2.216-1.894-0.593-0.020c-0.198-0.007-0.281-0.051-0.302-0.082l0.126-0.328-0.347 0.015c-0.253 0.011-0.5 0.016-0.742 0.016h-0c-0.698 0-1.346-0.046-1.944-0.119l0.139-0.164c1.208 0.162 2.654 0.261 4.401 0.249-0.417 0.585-1.457 1.828-3.464 3.038zM15.882 26.857v0.913c-0.285 0-0.561-0.001-0.832-0.003l-0.082-1.027-0.677 0.055c0.456-0.539 0.65-0.898 0.668-0.931l0.183-0.347-0.387 0.007c-3.709 0.068-6.128-0.374-7.655-0.865-0.112-0.451-0.176-0.961-0.176-1.557 0-4.062 2.595-10.201 6.041-12.689 0.611 0.591 1.537 0.849 2.417 0.275 0.193-0.126 0.361-0.291 0.518-0.466 0.038 0.001 0.076 0.009 0.114 0.009 0.126 0 0.254-0.010 0.382-0.026 0.162 0.064 0.319 0.129 0.466 0.194 0.701 0.309 1.301 0.117 1.71-0.309 3.156 1.91 5.685 6.962 6.351 11.046-1.443 0.577-3.732 1.14-7.245 1.239 0.693-0.396 1.213-1.062 1.026-1.937-0.197-0.925-0.97-1.185-1.77-1.227-0.002-0.435-0.002-0.868 0.001-1.303 0.246 0.109 0.481 0.233 0.695 0.367 0.378 0.237 0.72-0.378 0.345-0.615-0.326-0.205-0.673-0.372-1.036-0.5 0.005-0.503 0.007-1.005 0.007-1.507 0.001-0.46-0.683-0.46-0.683 0 0 0.442-0.003 0.882-0.007 1.323-0.364-0.063-0.735-0.070-1.101-0.018-0.059-0.331-0.132-0.66-0.216-0.985-0.113-0.443-0.773-0.255-0.659 0.189 0.084 0.319 0.153 0.637 0.209 0.96-0.029 0.011-0.061 0.016-0.089 0.029-0.926 0.366-1.491 1.301-0.814 2.172 0.316 0.406 0.728 0.57 1.18 0.625 0.024 0.601 0.040 1.204 0.057 1.804-0.302-0.196-0.578-0.448-0.827-0.715-0.309-0.326-0.792 0.177-0.483 0.503 0.419 0.446 0.86 0.784 1.337 1 0.022 0.513 0.052 1.028 0.102 1.539 0.044 0.454 0.728 0.456 0.683 0-0.042-0.442-0.073-0.885-0.094-1.328 0.26 0.045 0.533 0.056 0.823 0.029 0.033 0.473 0.071 0.946 0.125 1.419 0.031 0.271 0.29 0.378 0.481 0.323l-0.043 0.982c-0.301 0.027-0.608 0.052-0.928 0.073l-0.381 0.025 0.203 0.328c0.021 0.033 0.251 0.397 0.766 0.928h-0.706v-0.001zM28.326 23.566c-0.629 0.296-1.423 0.566-2.233 0.803-0.498-0.515-1.135-1.201-1.611-1.81 1.060-0.321 1.653-0.652 1.92-0.83 0.211 0.186 0.492 0.283 0.823 0.283 0.11 0 0.208-0.011 0.282-0.023 0.24 0.311 0.627 0.67 0.869 0.884-0.115 0.118-0.17 0.248-0.166 0.388 0.004 0.12 0.052 0.222 0.115 0.304zM24.748 25.209c0.102 0.090 0.208 0.182 0.315 0.275-2.027 0.537-3.535 0.596-3.864 0.602-2.099-1.281-3.187-2.636-3.606-3.246 1.757-0.044 3.209-0.203 4.42-0.422 0.049 0.060 0.099 0.12 0.149 0.18-0.973 0.152-1.954 0.249-2.939 0.292l-0.403 0.017 0.222 0.34c-0 0.001-0.046 0.085-0.344 0.142l-0.484 0.095 2.382 1.929 0.111-0.030c0.003-0.001 0.212-0.057 0.467-0.057 0.366 0 0.617 0.112 0.743 0.33l0.080 0.138 0.155-0.027c0.871-0.159 1.737-0.344 2.596-0.556zM17.7 23.739l-0.569-0.031c-0.026-0.284-0.053-0.568-0.073-0.852 0.1 0.166 0.305 0.478 0.642 0.883zM16.996 21.909c-0.033-0.673-0.053-1.347-0.059-2.020 0.082 0.003 0.163 0.010 0.24 0.021 0.884 0.134 1.115 1.117 0.425 1.67-0.18 0.142-0.387 0.247-0.605 0.329zM22.215 25.285c-0.224-0.277-0.58-0.422-1.041-0.422-0.193 0-0.362 0.026-0.469 0.047l-1.497-1.213c0.124-0.071 0.208-0.162 0.254-0.273 0.011-0.028 0.020-0.056 0.026-0.086 1.187-0.065 2.187-0.183 3.033-0.328 0.41 0.458 1.012 1.089 1.811 1.822-0.982 0.234-1.8 0.393-2.117 0.453zM16.252 19.906c0.010 0.725 0.028 1.451 0.066 2.175-0.065 0.010-0.128 0.023-0.192 0.029-0.215 0.024-0.419 0.006-0.613-0.043-0.025-0.7-0.041-1.401-0.067-2.102 0.269-0.012 0.541-0.039 0.805-0.060zM15.413 19.274c-0.031-0.549-0.083-1.097-0.155-1.643 0.331-0.046 0.668-0.028 0.994 0.050-0.004 0.511-0.004 1.022-0.002 1.534-0.22 0.012-0.428 0.033-0.612 0.049-0.075 0.006-0.15 0.009-0.224 0.010zM14.726 19.187c-0.042-0.012-0.084-0.021-0.128-0.035-0.2-0.068-0.381-0.182-0.529-0.334-0.427-0.398 0.159-0.789 0.529-0.975 0.058 0.445 0.098 0.894 0.128 1.344zM20.245 28.919c-2.17-1.109-3.335-2.341-3.798-2.912 0.333-0.025 0.647-0.055 0.959-0.087l3.559 2.31 7.805-2.144c-4.025 2.426-8.001 2.796-8.525 2.833zM26.691 24.975c-0.064-0.064-0.141-0.14-0.231-0.232 0.888-0.269 1.747-0.581 2.387-0.924l0.39-0.209-0.395-0.201c-0.089-0.046-0.175-0.129-0.176-0.161 0.001-0.012 0.036-0.076 0.187-0.163l0.289-0.166-0.257-0.214c-0.008-0.007-0.809-0.672-1.091-1.101l-0.093-0.14-0.16 0.046c-0.001 0-0.138 0.040-0.316 0.040-0.275 0-0.481-0.090-0.613-0.267l-0.146-0.194-0.183 0.158c-0.009 0.008-0.576 0.472-2.096 0.912-0.050-0.072-0.098-0.145-0.144-0.22 1.842-0.559 2.784-1.235 3.192-1.605 0.655 1.417 2.214 2.558 2.892 3.006-1.088 0.658-2.239 1.205-3.436 1.634z"></path>
      <path d="M22.19 23.559c-0.499-0.135-1.061-0.043-1.258 0.205-0.196 0.248 0.051 0.561 0.55 0.698 0.499 0.135 1.061 0.042 1.258-0.206 0.196-0.248-0.050-0.56-0.549-0.697z"></path>
    </symbol>

    <symbol id="hero-svg-icon-5" viewBox="0 0 32 32">
      <path d="M32 16c0 8.837-7.163 16-16 16s-16-7.163-16-16c0-8.837 7.163-16 16-16s16 7.163 16 16z"></path>
    </symbol>

    <symbol id="hero-svg-icon-6" viewBox="0 0 32 32">
      <path fill="none" stroke-linejoin="miter" stroke-linecap="butt" stroke-miterlimit="4" stroke-width="0.8" d="M16 2.494l3.302 10.161h10.684l-8.644 6.28 0.090 0.276 3.212 9.885-8.644-6.28-8.644 6.28 3.302-10.161-8.644-6.28h10.684l0.090-0.276 3.212-9.885z"></path>
    </symbol>

    <symbol id="hero-svg-icon-7" viewBox="0 0 32 32">
      <path fill="none" stroke="currentColor" style="stroke: var(--color1, currentColor)" stroke-linejoin="round" stroke-linecap="round" stroke-miterlimit="4" stroke-width="2" d="M9.333 24v-14.597c-0-0.31 0.103-0.612 0.293-0.857s0.456-0.421 0.756-0.499c0.3-0.078 0.618-0.054 0.903 0.069s0.522 0.336 0.672 0.607l8.085 14.555c0.151 0.271 0.387 0.485 0.672 0.607s0.603 0.146 0.903 0.069c0.3-0.078 0.566-0.253 0.756-0.499s0.293-0.547 0.293-0.857v-14.597"></path>
      <path fill="none" stroke="currentColor" style="stroke: var(--color1, currentColor)" stroke-linejoin="round" stroke-linecap="round" stroke-miterlimit="4" stroke-width="2" d="M6.667 13.333h18.667"></path>
      <path fill="none" stroke="currentColor" style="stroke: var(--color1, currentColor)" stroke-linejoin="round" stroke-linecap="round" stroke-miterlimit="4" stroke-width="2" d="M6.667 18.667h18.667"></path>
    </symbol>

  </defs>
</svg>